<svg preserveAspectRatio="none" width="100%" height="100%" overflow="visible" style="display: block;" viewBox="0 0 28 28" fill="none" xmlns="http://www.w3.org/2000/svg">
<g id="SVG">
<path id="Vector" d="M15.75 8.16667C16.0722 8.16667 16.3333 7.9055 16.3333 7.58333C16.3333 7.26117 16.0722 7 15.75 7C15.4278 7 15.1667 7.26117 15.1667 7.58333C15.1667 7.9055 15.4278 8.16667 15.75 8.16667Z" fill="var(--fill-0, #E8307D)" stroke="var(--stroke-0, #E8307D)" stroke-width="2.33333" stroke-linecap="round" stroke-linejoin="round"/>
<path id="Vector_2" d="M20.4167 12.8333C20.7388 12.8333 21 12.5722 21 12.25C21 11.9278 20.7388 11.6667 20.4167 11.6667C20.0945 11.6667 19.8333 11.9278 19.8333 12.25C19.8333 12.5722 20.0945 12.8333 20.4167 12.8333Z" fill="var(--fill-0, #E8307D)" stroke="var(--stroke-0, #E8307D)" stroke-width="2.33333" stroke-linecap="round" stroke-linejoin="round"/>
<path id="Vector_3" d="M9.91667 9.33333C10.2388 9.33333 10.5 9.07217 10.5 8.75C10.5 8.42783 10.2388 8.16667 9.91667 8.16667C9.5945 8.16667 9.33333 8.42783 9.33333 8.75C9.33333 9.07217 9.5945 9.33333 9.91667 9.33333Z" fill="var(--fill-0, #E8307D)" stroke="var(--stroke-0, #E8307D)" stroke-width="2.33333" stroke-linecap="round" stroke-linejoin="round"/>
<path id="Vector_4" d="M7.58333 15.1667C7.9055 15.1667 8.16667 14.9055 8.16667 14.5833C8.16667 14.2612 7.9055 14 7.58333 14C7.26117 14 7 14.2612 7 14.5833C7 14.9055 7.26117 15.1667 7.58333 15.1667Z" fill="var(--fill-0, #E8307D)" stroke="var(--stroke-0, #E8307D)" stroke-width="2.33333" stroke-linecap="round" stroke-linejoin="round"/>
<path id="Vector_5" d="M14 2.33333C7.58333 2.33333 2.33333 7.58333 2.33333 14C2.33333 20.4167 7.58333 25.6667 14 25.6667C15.0803 25.6667 15.9227 24.7963 15.9227 23.6973C15.9227 23.1875 15.7127 22.7232 15.4128 22.3848C15.0745 22.0477 14.9018 21.6242 14.9018 21.0723C14.8974 20.8156 14.9447 20.5605 15.041 20.3224C15.1372 20.0843 15.2804 19.868 15.462 19.6865C15.6435 19.5049 15.8598 19.3617 16.0979 19.2655C16.336 19.1692 16.5911 19.1219 16.8478 19.1263H19.1765C22.736 19.1263 25.6573 16.2062 25.6573 12.6467C25.6258 7.014 20.3712 2.33333 14 2.33333Z" stroke="var(--stroke-0, #E8307D)" stroke-width="2.33333" stroke-linecap="round" stroke-linejoin="round"/>
</g>
</svg>
