<svg preserveAspectRatio="none" width="100%" height="100%" overflow="visible" style="display: block;" viewBox="0 0 46.2671 55" fill="none" xmlns="http://www.w3.org/2000/svg">
<path id="Vector" fill-rule="evenodd" clip-rule="evenodd" d="M6.29008 0L8.35941 0.975744C12.9932 3.16036 19.2344 7.33239 23.1335 13.65C27.0327 7.33239 33.2738 3.16036 37.9077 0.975744L39.9773 0L45.3958 27.1675L43.4344 27.3957C40.2438 27.7664 35.4633 28.9237 31.54 31.1316C27.5886 33.3552 24.9402 36.3688 24.9402 40.3562C24.9402 40.9777 24.9988 41.5323 25.1044 42.0272C27.3696 38.9127 30.3952 36.9008 33.4716 35.6679C37.3897 34.0978 41.471 33.7534 44.4388 33.9938L46.2671 34.1418L46.0951 36.0122C45.526 42.1976 41.4101 46.5076 36.8733 48.5107C33.3123 50.0831 29.0427 50.3965 25.823 48.6456C25.2667 50.4409 24.9402 52.5413 24.9402 55H21.3269C21.3269 51.509 20.6687 48.74 19.6284 46.5424C17.8334 42.7514 14.7894 40.4411 11.4791 39.1145C8.96351 38.1067 6.34121 37.6893 4.12747 37.6323C4.82931 40.1624 6.37889 42.1972 8.32845 43.6549C10.7903 45.4952 13.7854 46.3326 16.2603 46.0903L16.6039 49.7746C13.1637 50.1114 9.30191 48.9644 6.19866 46.6444C3.06519 44.302 0.601471 40.6818 0.172009 36.0122L0 34.1418L1.82829 33.9938C4.79647 33.7534 8.87734 34.0978 12.7955 35.6679C16.0364 36.9666 19.2206 39.1297 21.519 42.5359C21.3921 41.8495 21.3269 41.1222 21.3269 40.3562C21.3269 36.3688 18.6785 33.3552 14.7271 31.1316C10.8037 28.9237 6.02368 27.7664 2.83274 27.3957L0.871232 27.1675L6.29008 0ZM23.1335 33.9377C24.729 31.3353 27.2002 29.3509 29.8001 27.8879C33.4862 25.8134 37.7338 24.5946 41.0773 24.0052L37.3651 5.39352C32.7414 7.96875 27.4166 12.2898 24.7816 18.3013L23.1335 22.0614L21.4854 18.3013C18.8505 12.2898 13.5256 7.96875 8.90197 5.39352L5.18975 24.0052C8.53329 24.5946 12.7809 25.8134 16.467 27.8879C19.0669 29.3509 21.5381 31.3353 23.1335 33.9377ZM27.327 45.2571C29.2713 46.4118 32.3265 46.4881 35.4431 45.1122C38.5088 43.7585 41.1553 41.1707 42.1388 37.6323C39.9255 37.6893 37.3036 38.1067 34.788 39.1145C31.8698 40.284 29.1584 42.2179 27.327 45.2571Z" fill="var(--fill-0, #E8307D)"/>
</svg>
