<svg width="54" height="62" viewBox="0 0 54 62" fill="none" xmlns="http://www.w3.org/2000/svg">
<path fill-rule="evenodd" clip-rule="evenodd" d="M7.2269 0L9.60443 1.09993C14.9284 3.56259 22.0991 8.2656 26.5789 15.3873C31.0588 8.2656 38.2295 3.56259 43.5535 1.09993L45.9314 0L52.1569 30.6252L49.9033 30.8824C46.2375 31.3003 40.7451 32.6049 36.2374 35.0938C31.6975 37.6004 28.6547 40.9976 28.6547 45.4925C28.6547 46.193 28.722 46.8182 28.8433 47.3761C31.4459 43.8652 34.9222 41.5973 38.4567 40.2074C42.9584 38.4375 47.6475 38.0493 51.0573 38.3203L53.1579 38.4871L52.9603 40.5956C52.3065 47.5682 47.5776 52.4268 42.3651 54.6848C38.2737 56.4573 33.3682 56.8106 29.669 54.8369C29.0298 56.8606 28.6547 59.2284 28.6547 62H24.5032C24.5032 58.0647 23.747 54.9433 22.5518 52.466C20.4894 48.1925 16.9921 45.5881 13.1887 44.0927C10.2985 42.9566 7.28564 42.4861 4.7422 42.4219C5.54857 45.274 7.32894 47.5678 9.56886 49.211C12.3974 51.2855 15.8385 52.2295 18.682 51.9563L19.0768 56.1096C15.1243 56.4892 10.6873 55.1962 7.12187 52.581C3.52171 49.9404 0.691052 45.8595 0.197627 40.5956L0 38.4871L2.10059 38.3203C5.51084 38.0493 10.1995 38.4375 14.7012 40.2074C18.4248 41.6714 22.0832 44.1099 24.724 47.9496C24.5782 47.1758 24.5032 46.3559 24.5032 45.4925C24.5032 40.9976 21.4604 37.6004 16.9205 35.0938C12.4128 32.6049 6.92082 31.3003 3.25464 30.8824L1.00099 30.6252L7.2269 0ZM26.5789 38.257C28.412 35.3234 31.2513 33.0865 34.2384 31.4373C38.4735 29.0987 43.3537 27.7248 47.1952 27.0604L42.9301 6.07997C37.6178 8.98295 31.4999 13.854 28.4725 20.6306L26.5789 24.8692L24.6854 20.6306C21.658 13.854 15.5401 8.98295 10.2278 6.07997L5.96269 27.0604C9.8042 27.7248 14.6844 29.0987 18.9195 31.4373C21.9066 33.0865 24.7459 35.3234 26.5789 38.257ZM31.397 51.0171C33.6309 52.3187 37.1411 52.4048 40.7219 50.8538C44.2441 49.3278 47.2848 46.4106 48.4148 42.4219C45.8718 42.4861 42.8594 42.9566 39.9692 44.0927C36.6164 45.411 33.5011 47.5911 31.397 51.0171Z" fill="#E8307D"/>
</svg>
