<svg width="202" height="62" viewBox="0 0 202 62" fill="none" xmlns="http://www.w3.org/2000/svg">
<path fill-rule="evenodd" clip-rule="evenodd" d="M7.2269 0L9.60443 1.09993C14.9284 3.56259 22.0991 8.2656 26.5789 15.3873C31.0588 8.2656 38.2295 3.56259 43.5535 1.09993L45.9314 0L52.1569 30.6252L49.9033 30.8824C46.2375 31.3003 40.7451 32.6049 36.2374 35.0938C31.6975 37.6004 28.6547 40.9976 28.6547 45.4925C28.6547 46.193 28.722 46.8182 28.8433 47.3761C31.4459 43.8652 34.9222 41.5973 38.4567 40.2074C42.9584 38.4375 47.6475 38.0493 51.0573 38.3203L53.1579 38.4871L52.9603 40.5956C52.3065 47.5682 47.5776 52.4268 42.3651 54.6848C38.2737 56.4573 33.3682 56.8106 29.669 54.8369C29.0298 56.8606 28.6547 59.2284 28.6547 62H24.5032C24.5032 58.0647 23.747 54.9433 22.5518 52.466C20.4894 48.1925 16.9921 45.5881 13.1887 44.0927C10.2985 42.9566 7.28564 42.4861 4.7422 42.4219C5.54857 45.274 7.32894 47.5678 9.56886 49.211C12.3974 51.2855 15.8385 52.2295 18.682 51.9563L19.0768 56.1096C15.1243 56.4892 10.6873 55.1962 7.12187 52.581C3.52171 49.9404 0.691052 45.8595 0.197627 40.5956L0 38.4871L2.10059 38.3203C5.51084 38.0493 10.1995 38.4375 14.7012 40.2074C18.4248 41.6714 22.0832 44.1099 24.724 47.9496C24.5782 47.1758 24.5032 46.3559 24.5032 45.4925C24.5032 40.9976 21.4604 37.6004 16.9205 35.0938C12.4128 32.6049 6.92082 31.3003 3.25464 30.8824L1.00099 30.6252L7.2269 0ZM26.5789 38.257C28.412 35.3234 31.2513 33.0865 34.2384 31.4373C38.4735 29.0987 43.3537 27.7248 47.1952 27.0604L42.9301 6.07997C37.6178 8.98295 31.4999 13.854 28.4725 20.6306L26.5789 24.8692L24.6854 20.6306C21.658 13.854 15.5401 8.98295 10.2278 6.07997L5.96269 27.0604C9.8042 27.7248 14.6844 29.0987 18.9195 31.4373C21.9066 33.0865 24.7459 35.3234 26.5789 38.257ZM31.397 51.0171C33.6309 52.3187 37.1411 52.4048 40.7219 50.8538C44.2441 49.3278 47.2848 46.4106 48.4148 42.4219C45.8718 42.4861 42.8594 42.9566 39.9692 44.0927C36.6164 45.411 33.5011 47.5911 31.397 51.0171Z" fill="#E8307D"/>
<path d="M140.953 10.6895C142.683 10.6895 144.018 11.1313 144.956 12.0142C145.895 12.8819 146.364 14.1443 146.364 15.8019C146.364 16.9642 146.144 17.94 145.704 18.7298C145.279 19.5045 144.655 20.0857 143.834 20.4728L146.716 26.7239H142.822L140.205 21.0304H137.631V26.7239H133.958V10.6895H140.953ZM142.602 15.5696C142.602 15.0276 142.448 14.6013 142.14 14.2916C141.847 13.9663 141.371 13.8034 140.711 13.8034H137.631V17.9169H140.711C141.356 17.9169 141.832 17.754 142.14 17.4287C142.448 17.1034 142.602 16.6696 142.602 16.1276V15.5696Z" fill="#E8307D"/>
<path d="M127.053 10.6895L131.831 26.7239H127.995L126.965 23.2384H121.288L120.279 26.7239H116.947L121.726 10.6895H127.053ZM122.164 20.2868H126.088L124.115 13.5712L122.164 20.2868Z" fill="#E8307D"/>
<path d="M109.947 10.6895V23.424H115.884V26.7239H106.315V10.6895H109.947Z" fill="#E8307D"/>
<path d="M98.7831 13.9894H91.4316V10.6895H103.126V13.9894L95.7744 23.424H103.126V26.7239H91.4316V23.424L98.7831 13.9894Z" fill="#E8307D"/>
<path d="M89.3057 10.6895V26.7239H86.1162V10.6895H89.3057Z" fill="#E8307D"/>
<path d="M68.042 18.4966C68.042 17.0285 68.203 15.798 68.525 14.8043C68.847 13.7961 69.3229 12.9877 69.9522 12.3799C70.5815 11.7717 71.3571 11.342 72.2789 11.0898C73.2155 10.8228 74.2841 10.6895 75.4843 10.6895C76.6845 10.6895 77.7455 10.8228 78.6674 11.0898C79.604 11.342 80.3871 11.7717 81.0164 12.3799C81.6457 12.9877 82.1212 13.7961 82.4432 14.8043C82.7652 15.798 82.9262 17.0285 82.9262 18.4966C82.9262 20.0091 82.7728 21.277 82.4655 22.3001C82.1578 23.3087 81.7042 24.1388 81.1043 24.7913L82.8384 26.7489L80.2699 28.8619L78.0747 26.3928C77.2991 26.5708 76.4356 26.6598 75.4843 26.6598C74.2841 26.6598 73.2155 26.5261 72.2789 26.2595C71.3571 25.9924 70.5815 25.5401 69.9522 24.9025C69.3229 24.2649 68.847 23.4271 68.525 22.3891C68.203 21.3362 68.042 20.0389 68.042 18.4966ZM79.1723 17.6069C79.1723 16.1536 78.8578 15.1378 78.2285 14.5598C77.6135 13.9665 76.6988 13.6701 75.4843 13.6701C74.2547 13.6701 73.3328 13.9665 72.7182 14.5598C72.1037 15.1378 71.7959 16.1536 71.7959 17.6069V19.6756C71.7959 20.4465 71.8695 21.0918 72.0158 21.6105C72.1768 22.1148 72.4109 22.5224 72.7182 22.8342C73.0255 23.1456 73.406 23.3679 73.8596 23.5012C74.3279 23.62 74.8697 23.6792 75.4843 23.6792C76.0989 23.6792 76.6332 23.62 77.0868 23.5012C77.5551 23.3679 77.9431 23.1456 78.2504 22.8342C78.5577 22.5224 78.7847 22.1148 78.931 21.6105C79.092 21.0918 79.1723 20.4465 79.1723 19.6756V17.6069Z" fill="#E8307D"/>
<path d="M202 36.3447V52.3792H199.874V36.3447H202Z" fill="#E8307D"/>
<path d="M188.011 48.0551C188.04 48.5959 188.133 49.0388 188.291 49.3842C188.449 49.7292 188.671 50.0069 188.958 50.2174C189.245 50.4274 189.604 50.5775 190.034 50.6676C190.464 50.7426 190.974 50.7802 191.562 50.7802C192.638 50.7802 193.442 50.5701 193.973 50.1497C194.503 49.7141 194.769 49.0013 194.769 48.0103C194.769 47.3949 194.647 46.9067 194.403 46.5466C194.159 46.171 193.836 45.886 193.434 45.6906C193.047 45.4806 192.595 45.3305 192.079 45.2404C191.577 45.1352 191.06 45.0377 190.529 44.9476C189.998 44.8424 189.474 44.722 188.958 44.5871C188.456 44.437 188.004 44.2119 187.602 43.9113C187.215 43.5961 186.899 43.1907 186.655 42.6952C186.411 42.1851 186.289 41.5166 186.289 40.6912C186.289 39.1896 186.713 38.0938 187.559 37.403C188.42 36.6975 189.661 36.3447 191.282 36.3447C192.861 36.3447 194.087 36.6522 194.963 37.268C195.852 37.8683 196.333 38.8968 196.404 40.3531H194.446C194.374 39.4074 194.066 38.7692 193.521 38.4389C192.975 38.1085 192.229 37.9438 191.282 37.9438C190.249 37.9438 189.474 38.1465 188.958 38.5518C188.442 38.9421 188.183 39.6476 188.183 40.6684C188.183 41.254 188.305 41.7193 188.549 42.0647C188.793 42.4102 189.109 42.6805 189.496 42.8755C189.898 43.0557 190.35 43.1985 190.852 43.3033C191.369 43.3934 191.892 43.4913 192.423 43.5961C192.968 43.7013 193.492 43.8363 193.994 44.0014C194.51 44.152 194.963 44.3844 195.35 44.6996C195.752 45.0002 196.074 45.4129 196.318 45.9386C196.562 46.4488 196.684 47.1167 196.684 47.9426C196.684 49.5192 196.247 50.6525 195.371 51.3433C194.496 52.0338 193.234 52.3792 191.584 52.3792C190.68 52.3792 189.891 52.3042 189.216 52.1541C188.542 52.0191 187.975 51.7863 187.516 51.4559C187.057 51.1105 186.706 50.6603 186.462 50.1048C186.232 49.5494 186.096 48.8659 186.053 48.0551H188.011Z" fill="#E8307D"/>
<path d="M179.6 36.3447L184.989 52.3792H182.829L181.319 47.8946H174.56L173.073 52.3792H171.168L176.534 36.3447H179.6ZM175.117 46.2445H180.784L177.951 37.7389L175.117 46.2445Z" fill="#E8307D"/>
<path d="M159.474 36.3447H161.618L166.018 43.595L170.33 36.3447H172.232L166.925 45.2918V52.3792H164.935V45.2918L159.474 36.3447Z" fill="#E8307D"/>
<path d="M158.41 36.3447V52.3792H156.284V36.3447H158.41Z" fill="#E8307D"/>
<path d="M138.989 38.134V52.3792H137.147V36.3447H140.313L144.624 50.2646L149.023 36.3447H152.032V52.3792H150.011V38.2039L145.522 52.3792H143.456L138.989 38.134Z" fill="#E8307D"/>
<path d="M134.953 36.3447V38.0642H127.483V43.3396H133.351V45.0359H127.483V50.6597H135.021V52.3792H125.452V36.3447H134.953Z" fill="#E8307D"/>
<path d="M115.608 50.6366C117.13 50.6366 118.286 50.1952 119.076 49.3119C119.88 48.4134 120.282 47.05 120.282 45.2219V43.3627C120.282 41.5347 119.88 40.2024 119.076 39.3658C118.286 38.5136 117.13 38.0878 115.608 38.0878H112.507V50.6366H115.608ZM115.608 36.3447C117.805 36.3447 119.463 36.9722 120.583 38.2271C121.703 39.482 122.263 41.5271 122.263 44.3622C122.263 47.1198 121.703 49.1494 120.583 50.4506C119.463 51.7366 117.805 52.3792 115.608 52.3792H110.568V36.3447H115.608Z" fill="#E8307D"/>
<path d="M103.053 36.3447L108.442 52.3792H106.282L104.772 47.8946H98.0123L96.5258 52.3792H94.6211L99.9868 36.3447H103.053ZM98.5701 46.2445H104.238L101.404 37.7389L98.5701 46.2445Z" fill="#E8307D"/>
<path d="M94.1069 36.3447L88.4232 44.1762L94.6215 52.3792H92.0954L86.6688 45.1752H85.0318V52.3792H82.9268V36.3447H85.0318V43.4326H86.6921L91.8616 36.3447H94.1069Z" fill="#E8307D"/>
<path d="M76.4739 36.3447L81.863 52.3792H79.7027L78.1931 47.8946H71.4335L69.947 52.3792H68.042L73.408 36.3447H76.4739ZM71.9909 46.2445H77.6589L74.8246 37.7389L71.9909 46.2445Z" fill="#E8307D"/>
</svg>
